<?xml version="1.0" encoding="iso-8859-1"?>
<!-- Generator: Adobe Illustrator 21.0.0, SVG Export Plug-In . SVG Version: 6.00 Build 0)  -->
<svg xmlns="http://www.w3.org/2000/svg" xmlns:xlink="http://www.w3.org/1999/xlink" version="1.1" id="Capa_1" x="0px"
     y="0px" viewBox="0 0 512.007 512.007" style="enable-background:new 0 0 512.007 512.007;" xml:space="preserve"
     width="16" height="16">
<g>
	<path d="M391.008,15c0-8.291-6.709-15-15-15h-45v61h60V15z"/>
    <path d="M0.008,61h301V0h-286c-8.291,0-15,6.709-15,15V61z"/>
    <path d="M0.008,347c0,8.291,6.709,15,15,15h226c0-66.167,53.833-120,120-120c10.419,0,20.354,1.754,30,4.261V91h-391V347z    M247.014,178.997c-6.636-4.966-7.983-14.37-3.003-20.991c4.995-6.636,14.385-7.939,20.991-3.003l60,45   c3.779,2.827,6.006,7.28,6.006,11.997s-2.227,9.17-6.006,11.997l-60,45c-6.639,4.979-16.04,3.624-20.991-3.003   c-4.98-6.621-3.633-16.025,3.003-20.991L291.003,212L247.014,178.997z M166.784,252.254l30-90   c2.607-7.852,11.03-12.085,18.97-9.478c7.852,2.607,12.1,11.104,9.478,18.97l-30,90c-2.606,7.817-11.065,12.112-18.97,9.478   C168.41,268.616,164.162,260.12,166.784,252.254z M67.014,200.003l60-45c6.621-4.98,16.011-3.662,20.991,3.003   c4.98,6.621,3.633,16.025-3.003,20.991L101.013,212l43.989,33.003c6.636,4.966,7.983,14.37,3.003,20.991   c-4.948,6.621-14.346,7.985-20.991,3.003l-60-45c-3.779-2.827-6.006-7.28-6.006-11.997S63.235,202.83,67.014,200.003z"/>
    <path d="M451.008,362c0-49.629-40.371-90-90-90s-90,40.371-90,90s40.371,90,90,90S451.008,411.629,451.008,362z"/>
    <path d="M503.219,503.211c11.666-11.666,11.748-30.674,0-42.422l-39.216-38.216c-10.353,17.532-24.89,32.069-42.422,42.422   l39.216,38.216C472.522,514.936,491.488,514.942,503.219,503.211z"/>
</g>
</svg>
